:SAMPLES-PER-SECOND 30
:FULLY-SPECIFIED
:DEGREES
47
root  17.3568 39.2901 -0.613564 116.78 -85.4181 -119.709
RightUpLeg  -10.3025 -15.3619 3.78963
RightLeg  23.5096 -3.59179 0.759189
RightFoot  -9.95977 -0.0257781 -3.3894
RightToes  0.000482159 0.542163 -0.142577
Spine  12.523 -0.899123 11.7994
Spine1  9.58672 0.635131 0.975259
HEad  -2.59373 0.847562 -2.88794
LeftShoulder1  5.96848 -9.75472 -38.8153
LeftArm  -14.1418 17.2008 -35.877
LeftForeArm  35.889 -36.9713 -6.26705
LeftHand  -0.25398 0.0180481 5.50724
RightShoulder  3.85954 6.83617 31.3772
RightArm  -6.79057 -2.69709 36.0705
RightForeArm  2.96265 28.7541 6.07396
RightHand  -1.75515 4.33543 -21.0712
LeftUpLeg  -18.4715 5.19129 4.91547
LeftLeg  61.2754 2.3984 5.30196
LeftFoot  2.36518 0.328299 -2.83469
LeftToes  1.06244e-005 4.65856e-005 -8.18505e-006
48
root  16.0934 39.5136 -0.740899 128.256 -86.0626 -131.199
RightUpLeg  -7.12904 -14.3196 1.86666
RightLeg  21.8313 -4.04859 1.52576
RightFoot  -11.3267 -0.0758557 -2.66088
RightToes  0.000482159 0.542163 -0.142577
Spine  12.1875 -0.508799 11.0575
Spine1  9.41457 1.04271 0.0051034
HEad  -2.78429 0.951123 -3.09666
LeftShoulder1  6.0878 -9.96664 -38.9863
LeftArm  -12.6718 18.0771 -35.7914
LeftForeArm  37.4378 -35.5372 -5.80284
LeftHand  -0.25398 0.0180481 5.50724
RightShoulder  3.77408 6.66313 31.1706
RightArm  -6.657 -0.27417 37.2658
RightForeArm  2.91608 31.3778 6.72889
RightHand  -1.77192 4.42451 -21.0814
LeftUpLeg  -21.0652 5.63722 3.35182
LeftLeg  55.794 3.41286 5.88212
LeftFoot  1.01139 0.132754 -1.30052
LeftToes  1.06244e-005 4.65856e-005 -8.18505e-006
49
root  14.8396 39.6684 -0.863406 141.689 -86.3434 -144.594
RightUpLeg  -4.16843 -13.4245 0.360411
RightLeg  20.2019 -4.25474 2.10828
RightFoot  -12.4359 -0.104209 -2.03416
RightToes  0.000482159 0.542163 -0.142577
Spine  11.76 -0.0167727 10.509
Spine1  9.46404 1.59313 -1.0787
HEad  -3.18925 0.712165 -3.03988
LeftShoulder1  6.22965 -10.2152 -39.1931
LeftArm  -11.2187 19.1098 -35.5936
LeftForeArm  38.359 -34.1665 -5.40679
LeftHand  -0.25398 0.0180481 5.50724
RightShoulder  3.79091 6.72474 31.1108
RightArm  -6.51042 1.52623 38.2757
RightForeArm  2.10296 33.9788 7.46499
RightHand  -1.81237 4.56778 -21.2492
LeftUpLeg  -22.461 6.92399 2.10501
LeftLeg  47.4738 4.1393 5.25597
LeftFoot  -0.503027 0.179211 -1.86536
LeftToes  1.06244e-005 4.65856e-005 -8.18505e-006
50
root  13.5795 39.7526 -0.964522 150.268 -86.2792 -152.955
RightUpLeg  -1.55997 -12.4332 -0.499095
RightLeg  18.79 -4.95037 2.38295
RightFoot  -13.269 -0.126153 -2.14097
RightToes  0.000482159 0.542163 -0.142577
Spine  11.1053 0.482187 10.5276
Spine1  9.69486 2.21748 -2.22747
HEad  -3.84025 0.307235 -2.83176
LeftShoulder1  6.35744 -10.4364 -39.3814
LeftArm  -9.54939 20.2962 -35.2852
LeftForeArm  37.4079 -33.0216 -5.17933
LeftHand  -0.25398 0.0180481 5.50724
RightShoulder  3.86602 6.92432 31.1225
RightArm  -6.28572 2.8266 39.1024
RightForeArm  1.47409 36.6819 8.27371
RightHand  -1.89257 4.80969 -21.6546
LeftUpLeg  -22.8048 9.07388 1.07847
LeftLeg  36.4949 4.0654 3.5971
LeftFoot  -0.672129 0.274991 -2.90016
LeftToes  1.06244e-005 4.65856e-005 -8.18505e-006
51
root  12.3077 39.8191 -1.03609 157.377 -86.0865 -159.929
RightUpLeg  1.3103 -11.5668 -1.28256
RightLeg  17.0013 -5.40156 2.61453
RightFoot  -14.0942 -0.141611 -1.96645
RightToes  0.000482159 0.542163 -0.142577
Spine  10.5547 0.996768 10.684
Spine1  10.0563 2.98504 -3.59044
HEad  -4.55677 -0.227369 -2.61335
LeftShoulder1  6.43725 -10.5746 -39.4956
LeftArm  -8.04161 21.6505 -34.9941
LeftForeArm  35.5176 -32.1423 -5.07118
LeftHand  -0.25398 0.0180481 5.50724
RightShoulder  3.94492 7.13882 31.1172
RightArm  -5.91334 3.67783 39.878
RightForeArm  1.89011 39.4013 9.08813
RightHand  -1.99893 5.27596 -21.8789
LeftUpLeg  -22.0673 12.1906 -0.431069
LeftLeg  23.7917 2.87254 1.90986
LeftFoot  0.497247 0.267999 -2.61638
LeftToes  1.06244e-005 4.65856e-005 -8.18505e-006
52
root  10.9929 39.8077 -1.07682 165.42 -85.7998 -168.103
RightUpLeg  4.37233 -11.4587 -2.41248
RightLeg  15.5618 -4.60117 2.87004
RightFoot  -15.2526 -0.127754 -0.736902
RightToes  0.000482159 0.542163 -0.142577
Spine  10.2022 1.53014 10.6788
Spine1  10.5999 3.89644 -4.91234
HEad  -5.06429 -0.945645 -2.36865
LeftShoulder1  6.4627 -10.634 -39.4847
LeftArm  -7.27985 23.1536 -34.8475
LeftForeArm  34.3967 -31.5611 -4.99445
LeftHand  -0.25398 0.0180481 5.50724
RightShoulder  4.02533 7.36669 31.0802
RightArm  -5.28167 4.11251 40.6608
RightForeArm  2.66259 41.6997 9.8079
RightHand  -2.17001 6.04546 -22.1547
LeftUpLeg  -20.4273 13.1139 -1.12539
LeftLeg  11.786 3.75598 -0.147183
LeftFoot  1.38341 0.273741 -2.52699
LeftToes  1.06244e-005 4.65856e-005 -8.18505e-006
53
root  9.59201 39.6857 -1.0821 170.694 -85.6238 -173.572
RightUpLeg  7.0302 -12.485 -3.67774
RightLeg  15.4952 -2.98646 2.81676
RightFoot  -16.4188 -0.0994911 0.293925
RightToes  0.000482159 0.542163 -0.142577
Spine  9.53756 2.07856 10.5787
Spine1  11.211 4.69143 -5.70447
HEad  -5.23438 -1.81423 -2.04887
LeftShoulder1  6.43338 -10.6212 -39.3265
LeftArm  -7.16087 24.6514 -34.8434
LeftForeArm  34.0963 -31.1165 -4.90653
LeftHand  -0.25398 0.0180481 5.50724
RightShoulder  4.09782 7.57549 31.0365
RightArm  -4.25395 4.18331 41.4623
RightForeArm  2.1033 43.5513 10.5127
RightHand  -2.50793 7.12471 -23.349
LeftUpLeg  -18.3949 5.29006 1.85613
LeftLeg  3.54774 13.6525 -3.80131
LeftFoot  1.74435 0.294337 -2.65183
LeftToes  1.06244e-005 4.65856e-005 -8.18505e-006
54
root  8.11005 39.5 -1.05644 174.535 -86.002 -177.536
RightUpLeg  9.03052 -14.8138 -5.11475
RightLeg  17.1348 -0.830842 2.18097
RightFoot  -17.5031 -0.069748 0.871044
RightToes  0.000482159 0.542163 -0.142577
Spine  8.57371 2.49126 10.1319
Spine1  11.7588 5.15108 -5.90792
HEad  -5.17796 -2.73572 -1.65167
LeftShoulder1  6.35633 -10.5216 -39.111
LeftArm  -7.151 25.8407 -34.842
LeftForeArm  33.4407 -30.3962 -4.77493
LeftHand  -0.25398 0.0180481 5.50724
RightShoulder  4.15606 7.69844 31.1521
RightArm  -2.66239 4.05225 42.1363
RightForeArm  -0.0413654 45.3282 11.345
RightHand  -2.97582 8.31679 -25.2376
LeftUpLeg  -18.2773 3.89203 1.40571
LeftLeg  2.06958 15.9768 -4.69221
LeftFoot  2.62678 0.134259 -1.25458
LeftToes  1.06244e-005 4.65856e-005 -8.18505e-006
55
root  6.598 39.2701 -0.992283 -178.83 -86.5993 175.375
RightUpLeg  10.4493 -17.1196 -6.91057
RightLeg  20.7655 2.03127 1.31359
RightFoot  -18.5041 0.114201 3.71179
RightToes  0.000482159 0.542163 -0.142577
Spine  8.09735 2.79409 9.29001
Spine1  12.1399 5.46806 -5.95832
HEad  -5.13911 -3.70948 -1.084
LeftShoulder1  6.28173 -10.3847 -39.0241
LeftArm  -6.93672 26.3458 -34.6475
LeftForeArm  31.865 -28.9481 -4.53053
LeftHand  -0.25398 0.0180481 5.50724
RightShoulder  4.26701 7.82668 31.7141
RightArm  -0.506898 4.09598 42.3593
RightForeArm  -2.45654 46.7748 12.1083
RightHand  -3.34858 9.25557 -26.5292
LeftUpLeg  -19.0319 6.10407 -1.08494
LeftLeg  6.56249 13.4108 -2.79585
LeftFoot  4.50461 -0.316831 2.04913
LeftToes  1.06244e-005 4.65856e-005 -8.18505e-006
56
root  5.1095 39.0346 -0.894309 -167.167 -86.4747 162.623
RightUpLeg  10.3376 -15.2802 -8.57128
RightLeg  27.536 2.15245 0.888949
RightFoot  -17.428 0.362699 9.55348
RightToes  0.000482159 0.542163 -0.142577
Spine  8.61204 3.26832 8.17766
Spine1  12.4173 6.06535 -6.27479
HEad  -5.3206 -4.81015 -0.238032
LeftShoulder1  6.28459 -10.3461 -39.1631
LeftArm  -6.39794 25.8806 -34.2131
LeftForeArm  29.6272 -26.5086 -4.09851
LeftHand  -0.25398 0.0180481 5.50724
RightShoulder  4.50522 8.16189 32.6747
RightArm  1.88209 4.81193 42.0101
RightForeArm  -4.95586 47.2876 12.503
RightHand  -3.6174 10.0291 -27.1854
LeftUpLeg  -19.2996 10.3536 -4.56221
LeftLeg  12.5473 7.8821 0.237336
LeftFoot  5.84351 -0.835715 5.32622
LeftToes  1.06244e-005 4.65856e-005 -8.18505e-006
57
root  3.68125 38.9049 -0.785866 -156.133 -85.2238 150.256
RightUpLeg  7.29721 -12.0455 -10.3396
RightLeg  38.1914 0.28326 -0.10458
RightFoot  -10.4745 -0.157468 13.3895
RightToes  0.000482159 0.542163 -0.142577
Spine  9.70529 3.98313 6.762
Spine1  12.713 7.00126 -6.80073
HEad  -5.75669 -5.85716 0.65087
LeftShoulder1  6.3743 -10.4711 -39.3886
LeftArm  -5.92525 24.5149 -33.7838
LeftForeArm  27.5382 -23.2389 -3.6374
LeftHand  -0.25398 0.0180481 5.50724
RightShoulder  4.78672 8.69762 33.2912
RightArm  4.12748 6.73137 41.5229
RightForeArm  -8.50437 47.2413 12.7177
RightHand  -4.15554 11.4174 -28.5534
LeftUpLeg  -18.3849 12.8555 -6.83872
LeftLeg  17.2142 5.24429 2.09506
LeftFoot  4.4033 -0.980341 6.88999
LeftToes  1.06244e-005 4.65856e-005 -8.18505e-006
58
root  2.3596 38.859 -0.679519 -149.505 -83.3493 142.579
RightUpLeg  1.17557 -9.58298 -12.1042
RightLeg  50.5836 -1.75433 -2.65141
RightFoot  1.9793 -1.21051 10.9432
RightToes  0.000482159 0.542163 -0.142577
Spine  10.8379 4.64679 4.98253
Spine1  12.9898 7.82762 -7.32775
HEad  -6.33938 -6.32076 1.0334
LeftShoulder1  6.46779 -10.6568 -39.4492
LeftArm  -6.97325 22.7376 -33.6048
LeftForeArm  27.4351 -19.9389 -3.67956
LeftHand  -0.25398 0.0180481 5.50724
RightShoulder  4.88627 9.15929 32.6482
RightArm  5.93159 10.4005 41.5222
RightForeArm  -12.3691 47.7067 13.176
RightHand  -5.0785 13.5502 -30.8412
LeftUpLeg  -16.7252 14.1486 -8.06821
LeftLeg  20.4979 5.59824 2.66322
LeftFoot  0.606782 -0.723424 6.83698
LeftToes  1.06244e-005 4.65856e-005 -8.18505e-006
59
root  1.1821 38.782 -0.566305 -145.9 -81.6508 138.247
RightUpLeg  -5.95124 -7.93589 -13.312
RightLeg  60.6877 -2.11781 -4.52231
RightFoot  11.7462 -1.02759 5.29071
RightToes  0.000482159 0.542163 -0.142577
Spine  12.0529 4.92626 3.3436
Spine1  13.1245 8.17056 -8.03051
HEad  -7.01301 -5.94529 0.688674
LeftShoulder1  6.49713 -10.7909 -39.2376
LeftArm  -9.0263 21.0669 -33.622
LeftForeArm  29.1934 -17.889 -3.87104
LeftHand  -0.25398 0.0180481 5.50724
RightShoulder  4.69636 9.32316 30.6571
RightArm  6.45128 15.8782 41.9251
RightForeArm  -14.0245 49.3501 14.0609
RightHand  -5.91909 15.3222 -32.7494
LeftUpLeg  -15.1291 16.0089 -9.23141
LeftLeg  23.0012 5.51616 2.90286
LeftFoot  -3.26131 -0.406829 6.03457
LeftToes  1.06244e-005 4.65856e-005 -8.18505e-006
